# xmcd
#
# Track frame offsets: 
#        150
#        15444
#        31478
#        43524
#        60621
#        75042
#        96658
#        115360
#        131017
#        142923
#        165794
#        180606
#        198049
#        214380
#        237981
#        253907
#        264782
#        281012
#        298914
#        313308
#        328360
#
# Disc length: 4611 seconds
#
# Revision: 5
# Processed by: cddbd v1.5.2PL0 Copyright (c) Steve Scherf et al.
# Submitted via: ExactAudioCopy v1.0b3
#
DISCID=33120115
DTITLE=Mavericks, The - The Mavericks Collection [Disc 1]
DYEAR=2005
DGENRE=Country
TTITLE0=Mr. Jones
TTITLE1=The End Of The Line
TTITLE2=Excuse Me (I Think I've Got A Heartache)
TTITLE3=This Broken Heart
TTITLE4=I Got You
TTITLE5=From Hell To Paradise
TTITLE6=A Better Way
TTITLE7=Forever Blue
TTITLE8=Hey Good Lookin'
TTITLE9=Children
TTITLE10=There Goes My Heart
TTITLE11=What A Crying Shame
TTITLE12=Pretend
TTITLE13=I Should Have Been True
TTITLE14=The Things You Said To Me
TTITLE15=Just A Memory
TTITLE16=All That Heaven Will Allow
TTITLE17=Neon Blue
TTITLE18=O What A Thrill
TTITLE19=Ain't Found Nobody
TTITLE20=The Losing Side Of Me
EXTD=
EXTT0=
EXTT1=
EXTT2=
EXTT3=
EXTT4=
EXTT5=
EXTT6=
EXTT7=
EXTT8=
EXTT9=
EXTT10=
EXTT11=
EXTT12=
EXTT13=
EXTT14=
EXTT15=
EXTT16=
EXTT17=
EXTT18=
EXTT19=
EXTT20=
PLAYORDER=
